<?xml version="1.0" encoding="UTF-8"?>
<svg id="Artwork" width="515.31" height="277.14" version="1.1" viewBox="0 0 515.31 277.14" xmlns="http://www.w3.org/2000/svg" xmlns:cc="http://creativecommons.org/ns#" xmlns:dc="http://purl.org/dc/elements/1.1/" xmlns:rdf="http://www.w3.org/1999/02/22-rdf-syntax-ns#" xmlns:xlink="http://www.w3.org/1999/xlink">
 <metadata>
  <rdf:RDF>
   <cc:Work rdf:about="">
    <dc:format>image/svg+xml</dc:format>
    <dc:type rdf:resource="http://purl.org/dc/dcmitype/StillImage"/>
    <dc:title>FullColorPrimary Vertical</dc:title>
   </cc:Work>
  </rdf:RDF>
 </metadata>
 <defs>
  <style>.cls-1{fill:none;}.cls-2{clip-path:url(#clip-path);}.cls-3{fill:url(#linear-gradient);}.cls-4{clip-path:url(#clip-path-2);}.cls-5{fill:url(#linear-gradient-2);}.cls-6{fill:#425066;}</style>
  <clipPath id="clip-path">
   <polygon class="cls-1" points="337.47 75.72 337.47 226.84 363.25 211.88 363.25 169.36 382.72 180.63 382.61 151.54 363.25 140.48 363.25 123.59 402.09 146.03 402 112.59"/>
  </clipPath>
  <linearGradient id="linear-gradient" x1="261.18" x2="419.65" y1="151.1" y2="151.1" gradientUnits="userSpaceOnUse">
   <stop stop-color="#ff6f00" offset="0"/>
   <stop stop-color="#ffa800" offset="1"/>
  </linearGradient>
  <clipPath id="clip-path-2">
   <polygon class="cls-1" points="331.67 75.72 331.67 226.84 305.89 211.88 305.89 123.59 267.05 146.03 267.14 112.59"/>
  </clipPath>
  <linearGradient id="linear-gradient-2" x1="260.11" x2="418.58" y1="151.1" y2="151.1" xlink:href="#linear-gradient"/>
  <linearGradient id="linearGradient876" x1="261.18" x2="419.65" y1="151.1" y2="151.1" gradientUnits="userSpaceOnUse" xlink:href="#linear-gradient"/>
 </defs>
 <title>FullColorPrimary Vertical</title>
 <g class="cls-2" transform="translate(-78.07,-75.72)" clip-path="url(#clip-path)">
  <rect class="cls-3" x="261.18" y="75.17" width="158.47" height="151.86" fill="url(#linearGradient876)"/>
 </g>
 <g class="cls-4" transform="translate(-78.07,-75.72)" clip-path="url(#clip-path-2)">
  <rect class="cls-5" x="260.11" y="75.17" width="158.47" height="151.86" fill="url(#linear-gradient-2)"/>
 </g>
 <path class="cls-6" d="m59.25 211.88h-23.32v64.23h-12.85v-64.23h-23.08v-10.46h59.25z"/>
 <path class="cls-6" d="m74.7 277.13q-11.85 0-19.21-7.46t-7.36-19.88v-1.51a33.4 33.4 0 0 1 3.2-14.85 24.4 24.4 0 0 1 9-10.18 23.76 23.76 0 0 1 12.92-3.64q11.34 0 17.52 7.23t6.16 20.44v5h-36.24q0.57 6.89 4.6 10.88a13.76 13.76 0 0 0 10.13 4 16.89 16.89 0 0 0 13.95-6.88l6.72 6.41a22.41 22.41 0 0 1-8.9 7.72 27.84 27.84 0 0 1-12.49 2.72zm-1.49-47.55a10.49 10.49 0 0 0-8.28 3.59q-3.17 3.58-4 10h23.75v-0.89q-0.41-6.25-3.33-9.46a10.41 10.41 0 0 0-8.14-3.24z"/>
 <path class="cls-6" d="m118.2 220.6 0.36 6.41a20 20 0 0 1 16.16-7.43q17.34 0 17.64 19.85v36.68h-12.43v-36c0-3.53-0.76-6.13-2.28-7.83s-4-2.54-7.47-2.54q-7.53 0-11.23 6.83v39.5h-12.5v-55.47z"/>
 <path class="cls-6" d="m192.81 261.03a5.64 5.64 0 0 0-2.74-5.08q-2.75-1.76-9.11-3.08a46.78 46.78 0 0 1-10.62-3.39q-9.33-4.51-9.33-13.08a14.74 14.74 0 0 1 6-12q6.06-4.83 15.39-4.82 9.94 0 16.08 4.92a15.61 15.61 0 0 1 6.18 12.78h-12.46a7.67 7.67 0 0 0-2.67-6 10.23 10.23 0 0 0-7.08-2.39 11 11 0 0 0-6.69 1.9 6 6 0 0 0-2.6 5.08 5.06 5.06 0 0 0 2.42 4.46q2.4 1.59 9.74 3.21a46.22 46.22 0 0 1 11.52 3.85 16.27 16.27 0 0 1 6.21 5.36 13.64 13.64 0 0 1 2 7.59 14.45 14.45 0 0 1-6.21 12.13q-6.19 4.65-16.26 4.64a28.66 28.66 0 0 1-12.15-2.46 20 20 0 0 1-8.31-6.77 16 16 0 0 1-3-9.29h12.11a8.77 8.77 0 0 0 3.33 6.8 13 13 0 0 0 8.16 2.39q4.92 0 7.49-1.88a5.77 5.77 0 0 0 2.6-4.87z"/>
 <path class="cls-6" d="m211.49 247.84a32.66 32.66 0 0 1 3.23-14.7 23.54 23.54 0 0 1 9.08-10.05 25.61 25.61 0 0 1 13.44-3.51q11.24 0 18.23 7.23t7.57 19.18l0.05 2.93a33.07 33.07 0 0 1-3.16 14.67 23.39 23.39 0 0 1-9 10 25.78 25.78 0 0 1-13.57 3.54q-11.75 0-18.8-7.82t-7.05-20.85zm12.44 1.08q0 8.57 3.54 13.41a11.49 11.49 0 0 0 9.85 4.85 11.37 11.37 0 0 0 9.82-4.92q3.52-4.94 3.52-14.42 0-8.42-3.62-13.34a12.19 12.19 0 0 0-19.52-0.07q-3.59 4.85-3.59 14.49z"/>
 <path class="cls-6" d="m300.59 231.99a31.16 31.16 0 0 0-5.07-0.41q-8.58 0-11.55 6.57v38h-12.46v-55.55h11.9l0.31 6.21q4.51-7.23 12.51-7.23a11.83 11.83 0 0 1 4.41 0.71z"/>
 <path class="cls-6" d="m352.71 244.46h-30.06v31.65h-13v-74.69h47.45v10.46h-34.45v22.21h30.06z"/>
 <path class="cls-6" d="m377.34 276.11h-12.47v-74.83h12.47z"/>
 <path class="cls-6" d="m386.47 247.84a32.79 32.79 0 0 1 3.23-14.7 23.6 23.6 0 0 1 9.08-10.05 25.61 25.61 0 0 1 13.44-3.51q11.23 0 18.24 7.23t7.57 19.18v2.93a32.93 32.93 0 0 1-3.1 14.67 23.26 23.26 0 0 1-9 10 25.72 25.72 0 0 1-13.56 3.54q-11.76 0-18.81-7.82t-7-20.85zm12.46 1.08q0 8.57 3.54 13.41a12.34 12.34 0 0 0 19.67-0.07q3.51-4.94 3.51-14.42 0-8.42-3.61-13.34a11.56 11.56 0 0 0-9.83-4.92 11.43 11.43 0 0 0-9.69 4.85q-3.59 4.85-3.59 14.49z"/>
 <path class="cls-6" d="m494.33 258.92 8.82-38.32h12.16l-15.13 55.51h-10.25l-11.9-38.12-11.7 38.12h-10.27l-15.13-55.51h12.16l9 37.91 11.39-37.91h9.39z"/>
</svg>
